<?xml version="1.0" encoding="UTF-8"?>
<!DOCTYPE svg PUBLIC "-//W3C//DTD SVG 1.1//EN" "http://www.w3.org/Graphics/SVG/1.1/DTD/svg11.dtd">
<svg xmlns="http://www.w3.org/2000/svg" version="1.1" width="300px" height="300px" style="shape-rendering:geometricPrecision; text-rendering:geometricPrecision; image-rendering:optimizeQuality; fill-rule:evenodd; clip-rule:evenodd" xmlns:xlink="http://www.w3.org/1999/xlink">
<g><path style="opacity:1" fill="#efefef" d="M -0.5,-0.5 C 99.5,-0.5 199.5,-0.5 299.5,-0.5C 299.5,99.5 299.5,199.5 299.5,299.5C 199.5,299.5 99.5,299.5 -0.5,299.5C -0.5,199.5 -0.5,99.5 -0.5,-0.5 Z"/></g>
<g><path style="opacity:1" fill="#b2b2b2" d="M 133.5,4.5 C 185.775,1.18855 228.941,19.1885 263,58.5C 299.689,109.256 304.355,162.923 277,219.5C 244.416,272.379 196.916,297.213 134.5,294C 86.364,287.365 49.5306,263.532 24,222.5C -0.381398,176.822 -1.71473,130.489 20,83.5C 45.0336,38.7365 82.8669,12.4032 133.5,4.5 Z"/></g>
<g><path style="opacity:1" fill="#efefef" d="M 228.5,244.5 C 227.833,245.167 227.167,245.833 226.5,246.5C 225.62,240.355 223.287,234.855 219.5,230C 226.11,222.283 233.277,215.116 241,208.5C 241.669,204.352 241.169,200.352 239.5,196.5C 244.646,175.154 238.979,157.32 222.5,143C 207.396,133.594 191.396,131.927 174.5,138C 163.717,143.783 155.217,151.949 149,162.5C 147.818,169.896 146.318,177.229 144.5,184.5C 145.447,189.234 147.113,193.734 149.5,198C 143.539,205.249 144.872,210.749 153.5,214.5C 154.167,214.167 154.833,213.833 155.5,213.5C 154.36,211.922 153.86,210.256 154,208.5C 159.733,221.073 169.233,229.073 182.5,232.5C 182.5,232.833 182.5,233.167 182.5,233.5C 178.487,233.205 174.654,232.205 171,230.5C 166.71,235.41 163.71,241.076 162,247.5C 161.073,253.516 160.073,259.516 159,265.5C 154.091,244.288 148.425,223.288 142,202.5C 135.871,199.788 129.537,197.455 123,195.5C 122.5,195.667 122,195.833 121.5,196C 122.252,196.671 122.586,197.504 122.5,198.5C 116.419,192.746 117.419,188.58 125.5,186C 129.364,180.906 134.364,177.572 140.5,176C 137.679,173.859 136.346,171.025 136.5,167.5C 139.167,167.167 141.833,166.833 144.5,166.5C 143.995,163.479 143.328,160.479 142.5,157.5C 142.833,156.833 143.167,156.167 143.5,155.5C 147.83,154.337 151.83,152.503 155.5,150C 151.5,147.333 147.5,144.667 143.5,142C 142.549,141.282 142.383,140.449 143,139.5C 150.781,136.863 157.947,133.196 164.5,128.5C 159.167,125.833 153.833,123.167 148.5,120.5C 153.318,115.181 158.318,110.015 163.5,105C 156.91,103.458 150.243,101.958 143.5,100.5C 147.167,93.8333 150.833,87.1667 154.5,80.5C 153.277,79.3861 151.944,79.2195 150.5,80C 145.538,81.9317 140.538,83.765 135.5,85.5C 134.029,84.6195 133.196,83.2861 133,81.5C 132.503,78.854 132.336,76.1873 132.5,73.5C 132.827,68.456 132.494,63.456 131.5,58.5C 130.893,58.6236 130.56,58.9569 130.5,59.5C 122.631,63.6112 115.631,68.9446 109.5,75.5C 104.538,69.2026 99.2046,63.2026 93.5,57.5C 92.8076,58.0253 92.3076,58.6919 92,59.5C 91.6972,63.894 91.0305,68.2273 90,72.5C 89.4147,75.6199 88.0814,78.2866 86,80.5C 81.2118,78.5215 76.3785,76.6882 71.5,75C 69.8333,74.3333 68.1667,74.3333 66.5,75C 70.2172,81.3195 72.2172,88.1529 72.5,95.5C 63.7292,95.7304 55.0625,96.7304 46.5,98.5C 52.3459,103.668 57.0126,109.668 60.5,116.5C 59.7814,118.728 58.448,120.561 56.5,122C 52.0441,124.626 48.0441,127.793 44.5,131.5C 52.6988,132.755 59.0321,136.755 63.5,143.5C 59.6341,147.53 55.9675,151.697 52.5,156C 52.9054,156.945 53.572,157.612 54.5,158C 58.2195,159.013 61.8862,160.18 65.5,161.5C 65.8333,162.5 66.1667,163.5 66.5,164.5C 65.5102,168.456 64.8436,172.456 64.5,176.5C 68.559,176.434 72.559,176.267 76.5,176C 77.4505,179.057 77.7839,182.223 77.5,185.5C 80.6817,185.416 83.015,184.083 84.5,181.5C 84.8333,181.5 85.1667,181.5 85.5,181.5C 88.5935,184.558 92.2601,186.891 96.5,188.5C 97.8333,190.167 97.8333,191.833 96.5,193.5C 88.8333,196.167 81.1667,198.833 73.5,201.5C 69.3728,213.716 65.5395,226.05 62,238.5C 29.2814,202.629 18.2814,160.962 29,113.5C 45.957,62.2162 81.1237,32.0495 134.5,23C 192.455,19.6849 234.955,43.5183 262,94.5C 284.187,152.077 273.02,202.077 228.5,244.5 Z"/></g>
<g><path style="opacity:1" fill="#cfcfcf" d="M 130.5,59.5 C 130.56,58.9569 130.893,58.6236 131.5,58.5C 132.494,63.456 132.827,68.456 132.5,73.5C 131.833,68.8333 131.167,64.1667 130.5,59.5 Z"/></g>
<g><path style="opacity:1" fill="#dddddd" d="M 85.5,181.5 C 85.1667,181.5 84.8333,181.5 84.5,181.5C 78.5824,173.604 75.0824,164.604 74,154.5C 73.3333,151.5 73.3333,148.5 74,145.5C 74.9443,158.497 78.7777,170.497 85.5,181.5 Z"/></g>
<g><path style="opacity:1" fill="#d1d1d1" d="M 92.5,200.5 C 93.0967,200.735 93.4301,201.235 93.5,202C 92.8037,203.893 91.9704,205.726 91,207.5C 90.8648,205.078 91.3648,202.745 92.5,200.5 Z"/></g>
<g><path style="opacity:1" fill="#d9d9d9" d="M 84.5,222.5 C 85.4208,217.986 86.9208,213.653 89,209.5C 88.6305,214.236 87.1305,218.569 84.5,222.5 Z"/></g>
<g><path style="opacity:1" fill="#dedede" d="M 122.5,198.5 C 129.194,207.214 134.361,216.881 138,227.5C 138.667,229.833 138.667,232.167 138,234.5C 135.298,236.907 132.798,239.407 130.5,242C 133.284,245.787 136.451,249.287 140,252.5C 140.667,253.5 140.667,254.5 140,255.5C 136.353,251.018 132.519,246.685 128.5,242.5C 130.711,238.964 133.545,235.964 137,233.5C 137.259,228.929 136.259,224.596 134,220.5C 130.396,212.955 126.563,205.622 122.5,198.5 Z"/></g>
<g><path style="opacity:1" fill="#dfdfdf" d="M 182.5,232.5 C 188.067,233.858 193.734,234.691 199.5,235C 193.577,235.868 187.911,235.368 182.5,233.5C 182.5,233.167 182.5,232.833 182.5,232.5 Z"/></g>
<g><path style="opacity:1" fill="#d9d9d9" d="M 84.5,222.5 C 84.3535,225.443 83.6868,228.276 82.5,231C 85.2839,234.787 88.4506,238.287 92,241.5C 92.6987,243.074 92.3654,244.407 91,245.5C 90.3828,244.551 90.5494,243.718 91.5,243C 88.3333,239.833 85.1667,236.667 82,233.5C 81.1297,229.361 81.963,225.694 84.5,222.5 Z"/></g>
<g><path style="opacity:1" fill="#d3d3d3" d="M 228.5,244.5 C 228.663,246.857 228.497,249.19 228,251.5C 227.392,249.846 226.892,248.179 226.5,246.5C 227.167,245.833 227.833,245.167 228.5,244.5 Z"/></g>
</svg>
